<?xml version="1.0" encoding="UTF-8"?>
<svg width="42px" height="55px" viewBox="0 0 42 55" version="1.1" xmlns="http://www.w3.org/2000/svg" xmlns:xlink="http://www.w3.org/1999/xlink">
    <!-- Generator: Sketch 45.2 (43514) - http://www.bohemiancoding.com/sketch -->
    <title>invoicing</title>
    <desc>Created with Sketch.</desc>
    <defs></defs>
    <g id="Initial-Release" stroke="none" stroke-width="1" fill="none" fill-rule="evenodd">
        <g id="Home" transform="translate(-518.000000, -848.000000)" fill-rule="nonzero">
            <g id="Section-2" transform="translate(0.000000, 410.000000)">
                <g id="Group-3" transform="translate(518.000000, 438.000000)">
                    <g id="invoicing">
                        <g id="invoice" transform="translate(0.000000, 10.287570)">
                            <polygon id="Shape" fill="#F4F8FC" points="21.6351208 1.15902433 30.9073154 10.431219 30.9073154 43.6565831 0.772682886 43.6565831 0.772682886 1.15902433"></polygon>
                            <path d="M30.9073154,44.429266 L0.772682886,44.429266 C0.347707299,44.429266 0,44.0815587 0,43.6565831 L0,1.15902433 C0,0.734048742 0.347707299,0.386341443 0.772682886,0.386341443 L21.6351208,0.386341443 C21.8282915,0.386341443 22.0214623,0.463609732 22.1759988,0.618146309 L31.4481935,9.89034094 C31.60273,10.0448775 31.6799983,10.2380482 31.6799983,10.431219 L31.6799983,43.6565831 C31.6799983,44.0815587 31.332291,44.429266 30.9073154,44.429266 Z M1.54536577,42.8839002 L30.1346326,42.8839002 L30.1346326,10.7402921 L21.3260477,1.93170722 L1.54536577,1.93170722 L1.54536577,42.8839002 Z" id="Shape" fill="#4F739A"></path>
                            <polygon id="Shape" fill="#DDE5ED" points="21.6351208 1.15902433 21.6351208 10.431219 30.9073154 10.431219"></polygon>
                            <path d="M30.9073154,11.2039019 L21.6351208,11.2039019 C21.2101452,11.2039019 20.8624379,10.8561946 20.8624379,10.431219 L20.8624379,1.15902433 C20.8624379,0.849951175 21.0556086,0.579512165 21.3260477,0.463609732 C21.6351208,0.309073154 21.944194,0.386341443 22.1759988,0.618146309 L31.4481935,9.89034094 C31.6799983,10.1221458 31.7186325,10.431219 31.60273,10.7402921 C31.4868276,11.0107311 31.2163886,11.2039019 30.9073154,11.2039019 Z M22.4078037,9.65853608 L29.0528765,9.65853608 L22.4078037,3.01346326 L22.4078037,9.65853608 Z" id="Shape" fill="#4F739A"></path>
                            <path d="M14.6809748,5.02243876 C14.6809748,4.79063389 14.5264383,4.63609732 14.2946334,4.63609732 L3.47707299,4.63609732 C3.24526812,4.63609732 3.09073154,4.79063389 3.09073154,5.02243876 L3.09073154,5.79512165 C3.09073154,6.02692651 3.24526812,6.18146309 3.47707299,6.18146309 L14.2946334,6.18146309 C14.5264383,6.18146309 14.6809748,6.02692651 14.6809748,5.79512165 L14.6809748,5.02243876 Z" id="Shape" fill="#4F739A"></path>
                            <path d="M14.6809748,8.11317031 C14.6809748,7.88136544 14.5264383,7.72682886 14.2946334,7.72682886 L3.47707299,7.72682886 C3.24526812,7.72682886 3.09073154,7.88136544 3.09073154,8.11317031 L3.09073154,8.11317031 C3.09073154,8.34497517 3.24526812,8.49951175 3.47707299,8.49951175 L14.2946334,8.49951175 C14.5264383,8.49951175 14.6809748,8.34497517 14.6809748,8.11317031 L14.6809748,8.11317031 Z" id="Shape" fill="#DDE5ED"></path>
                            <path d="M14.6809748,10.431219 C14.6809748,10.1994141 14.5264383,10.0448775 14.2946334,10.0448775 L3.47707299,10.0448775 C3.24526812,10.0448775 3.09073154,10.1994141 3.09073154,10.431219 L3.09073154,10.431219 C3.09073154,10.6630238 3.24526812,10.8175604 3.47707299,10.8175604 L14.2946334,10.8175604 C14.5264383,10.8175604 14.6809748,10.6630238 14.6809748,10.431219 L14.6809748,10.431219 Z" id="Shape" fill="#DDE5ED"></path>
                            <path d="M28.5892668,20.4760965 C28.5892668,20.7079014 28.4347302,20.8624379 28.2029253,20.8624379 L3.47707299,20.8624379 C3.24526812,20.8624379 3.09073154,20.7079014 3.09073154,20.4760965 L3.09073154,20.4760965 C3.09073154,20.2442916 3.24526812,20.089755 3.47707299,20.089755 L28.2029253,20.089755 C28.4347302,20.089755 28.5892668,20.2442916 28.5892668,20.4760965 L28.5892668,20.4760965 Z" id="Shape" fill="#DDE5ED"></path>
                            <path d="M20.4760965,22.7941451 C20.4760965,23.02595 20.3215599,23.1804866 20.089755,23.1804866 L9.27219463,23.1804866 C9.04038977,23.1804866 8.88585319,23.02595 8.88585319,22.7941451 L8.88585319,22.7941451 C8.88585319,22.5623403 9.04038977,22.4078037 9.27219463,22.4078037 L20.089755,22.4078037 C20.3215599,22.4078037 20.4760965,22.5623403 20.4760965,22.7941451 L20.4760965,22.7941451 Z" id="Shape" fill="#DDE5ED"></path>
                            <path d="M28.5892668,22.7941451 C28.5892668,23.02595 28.4347302,23.1804866 28.2029253,23.1804866 L24.3395109,23.1804866 C24.1077061,23.1804866 23.9531695,23.02595 23.9531695,22.7941451 L23.9531695,22.7941451 C23.9531695,22.5623403 24.1077061,22.4078037 24.3395109,22.4078037 L28.2029253,22.4078037 C28.4347302,22.4078037 28.5892668,22.5623403 28.5892668,22.7941451 L28.5892668,22.7941451 Z" id="Shape" fill="#DDE5ED"></path>
                            <path d="M17.3853649,25.1121938 C17.3853649,25.3439987 17.2308284,25.4985352 16.9990235,25.4985352 L9.27219463,25.4985352 C9.04038977,25.4985352 8.88585319,25.3439987 8.88585319,25.1121938 L8.88585319,25.1121938 C8.88585319,24.8803889 9.04038977,24.7258524 9.27219463,24.7258524 L16.9990235,24.7258524 C17.2308284,24.7258524 17.3853649,24.8803889 17.3853649,25.1121938 L17.3853649,25.1121938 Z" id="Shape" fill="#DDE5ED"></path>
                            <path d="M28.5892668,25.1121938 C28.5892668,25.3439987 28.4347302,25.4985352 28.2029253,25.4985352 L24.3395109,25.4985352 C24.1077061,25.4985352 23.9531695,25.3439987 23.9531695,25.1121938 L23.9531695,25.1121938 C23.9531695,24.8803889 24.1077061,24.7258524 24.3395109,24.7258524 L28.2029253,24.7258524 C28.4347302,24.7258524 28.5892668,24.8803889 28.5892668,25.1121938 L28.5892668,25.1121938 Z" id="Shape" fill="#DDE5ED"></path>
                            <path d="M18.5443893,27.8165839 L9.27219463,27.8165839 C9.04038977,27.8165839 8.88585319,27.6620473 8.88585319,27.4302425 L8.88585319,27.4302425 C8.88585319,27.1984376 9.04038977,27.043901 9.27219463,27.043901 L18.5443893,27.043901 C18.7761941,27.043901 18.9307307,27.1984376 18.9307307,27.4302425 L18.9307307,27.4302425 C18.9307307,27.6620473 18.7761941,27.8165839 18.5443893,27.8165839 Z" id="Shape" fill="#DDE5ED"></path>
                            <path d="M10.0448775,35.9297542 C10.0448775,36.1615591 9.89034094,36.3160957 9.65853608,36.3160957 L3.47707299,36.3160957 C3.24526812,36.3160957 3.09073154,36.1615591 3.09073154,35.9297542 L3.09073154,35.9297542 C3.09073154,35.6979493 3.24526812,35.5434128 3.47707299,35.5434128 L9.65853608,35.5434128 C9.89034094,35.5434128 10.0448775,35.6979493 10.0448775,35.9297542 L10.0448775,35.9297542 Z" id="Shape" fill="#DDE5ED"></path>
                            <path d="M28.5892668,35.9297542 C28.5892668,36.1615591 28.4347302,36.3160957 28.2029253,36.3160957 L22.0214623,36.3160957 C21.7896574,36.3160957 21.6351208,36.1615591 21.6351208,35.9297542 L21.6351208,35.9297542 C21.6351208,35.6979493 21.7896574,35.5434128 22.0214623,35.5434128 L28.2029253,35.5434128 C28.4347302,35.5434128 28.5892668,35.6979493 28.5892668,35.9297542 L28.5892668,35.9297542 Z" id="Shape" fill="#DDE5ED"></path>
                            <path d="M13.1356091,38.2478029 C13.1356091,38.4796077 12.9810725,38.6341443 12.7492676,38.6341443 L3.47707299,38.6341443 C3.24526812,38.6341443 3.09073154,38.4796077 3.09073154,38.2478029 L3.09073154,38.2478029 C3.09073154,38.015998 3.24526812,37.8614614 3.47707299,37.8614614 L12.7492676,37.8614614 C12.9810725,37.8614614 13.1356091,38.015998 13.1356091,38.2478029 L13.1356091,38.2478029 Z" id="Shape" fill="#DDE5ED"></path>
                            <path d="M28.5892668,27.4302425 C28.5892668,27.6620473 28.4347302,27.8165839 28.2029253,27.8165839 L24.3395109,27.8165839 C24.1077061,27.8165839 23.9531695,27.6620473 23.9531695,27.4302425 L23.9531695,27.4302425 C23.9531695,27.1984376 24.1077061,27.043901 24.3395109,27.043901 L28.2029253,27.043901 C28.4347302,27.043901 28.5892668,27.1984376 28.5892668,27.4302425 L28.5892668,27.4302425 Z" id="Shape" fill="#DDE5ED"></path>
                            <path d="M22.0214623,18.5443893 L3.47707299,18.5443893 C3.24526812,18.5443893 3.09073154,18.3898527 3.09073154,18.1580478 L3.09073154,17.3853649 C3.09073154,17.1535601 3.24526812,16.9990235 3.47707299,16.9990235 L22.0214623,16.9990235 C22.2532671,16.9990235 22.4078037,17.1535601 22.4078037,17.3853649 L22.4078037,18.1580478 C22.4078037,18.3898527 22.2532671,18.5443893 22.0214623,18.5443893 Z" id="Shape" fill="#4F739A"></path>
                            <path d="M28.2029253,18.5443893 L24.3395109,18.5443893 C24.1077061,18.5443893 23.9531695,18.3898527 23.9531695,18.1580478 L23.9531695,17.3853649 C23.9531695,17.1535601 24.1077061,16.9990235 24.3395109,16.9990235 L28.2029253,16.9990235 C28.4347302,16.9990235 28.5892668,17.1535601 28.5892668,17.3853649 L28.5892668,18.1580478 C28.5892668,18.3898527 28.4347302,18.5443893 28.2029253,18.5443893 Z" id="Shape" fill="#4F739A"></path>
                            <path d="M28.2029253,39.4068272 L22.0214623,39.4068272 C21.7896574,39.4068272 21.6351208,39.2522906 21.6351208,39.0204858 L21.6351208,38.2478029 C21.6351208,38.015998 21.7896574,37.8614614 22.0214623,37.8614614 L28.2029253,37.8614614 C28.4347302,37.8614614 28.5892668,38.015998 28.5892668,38.2478029 L28.5892668,39.0204858 C28.5892668,39.2522906 28.4347302,39.4068272 28.2029253,39.4068272 Z" id="Shape" fill="#4F739A"></path>
                            <path d="M7.72682886,22.7941451 C7.72682886,23.02595 7.57229229,23.1804866 7.34048742,23.1804866 L3.47707299,23.1804866 C3.24526812,23.1804866 3.09073154,23.02595 3.09073154,22.7941451 L3.09073154,22.7941451 C3.09073154,22.5623403 3.24526812,22.4078037 3.47707299,22.4078037 L7.34048742,22.4078037 C7.57229229,22.4078037 7.72682886,22.5623403 7.72682886,22.7941451 L7.72682886,22.7941451 Z" id="Shape" fill="#DDE5ED"></path>
                            <path d="M7.72682886,25.1121938 C7.72682886,25.3439987 7.57229229,25.4985352 7.34048742,25.4985352 L3.47707299,25.4985352 C3.24526812,25.4985352 3.09073154,25.3439987 3.09073154,25.1121938 L3.09073154,25.1121938 C3.09073154,24.8803889 3.24526812,24.7258524 3.47707299,24.7258524 L7.34048742,24.7258524 C7.57229229,24.7258524 7.72682886,24.8803889 7.72682886,25.1121938 L7.72682886,25.1121938 Z" id="Shape" fill="#DDE5ED"></path>
                            <path d="M7.72682886,27.4302425 C7.72682886,27.6620473 7.57229229,27.8165839 7.34048742,27.8165839 L3.47707299,27.8165839 C3.24526812,27.8165839 3.09073154,27.6620473 3.09073154,27.4302425 L3.09073154,27.4302425 C3.09073154,27.1984376 3.24526812,27.043901 3.47707299,27.043901 L7.34048742,27.043901 C7.57229229,27.043901 7.72682886,27.1984376 7.72682886,27.4302425 L7.72682886,27.4302425 Z" id="Shape" fill="#DDE5ED"></path>
                        </g>
                        <g id="invoice" transform="translate(10.000000, 0.287570)">
                            <polygon id="Shape" fill="#F4F8FC" points="21.6351208 1.15902433 30.9073154 10.431219 30.9073154 43.6565831 0.772682886 43.6565831 0.772682886 1.15902433"></polygon>
                            <path d="M30.9073154,44.429266 L0.772682886,44.429266 C0.347707299,44.429266 0,44.0815587 0,43.6565831 L0,1.15902433 C0,0.734048742 0.347707299,0.386341443 0.772682886,0.386341443 L21.6351208,0.386341443 C21.8282915,0.386341443 22.0214623,0.463609732 22.1759988,0.618146309 L31.4481935,9.89034094 C31.60273,10.0448775 31.6799983,10.2380482 31.6799983,10.431219 L31.6799983,43.6565831 C31.6799983,44.0815587 31.332291,44.429266 30.9073154,44.429266 Z M1.54536577,42.8839002 L30.1346326,42.8839002 L30.1346326,10.7402921 L21.3260477,1.93170722 L1.54536577,1.93170722 L1.54536577,42.8839002 Z" id="Shape" fill="#4F739A"></path>
                            <polygon id="Shape" fill="#DDE5ED" points="21.6351208 1.15902433 21.6351208 10.431219 30.9073154 10.431219"></polygon>
                            <path d="M30.9073154,11.2039019 L21.6351208,11.2039019 C21.2101452,11.2039019 20.8624379,10.8561946 20.8624379,10.431219 L20.8624379,1.15902433 C20.8624379,0.849951175 21.0556086,0.579512165 21.3260477,0.463609732 C21.6351208,0.309073154 21.944194,0.386341443 22.1759988,0.618146309 L31.4481935,9.89034094 C31.6799983,10.1221458 31.7186325,10.431219 31.60273,10.7402921 C31.4868276,11.0107311 31.2163886,11.2039019 30.9073154,11.2039019 Z M22.4078037,9.65853608 L29.0528765,9.65853608 L22.4078037,3.01346326 L22.4078037,9.65853608 Z" id="Shape" fill="#4F739A"></path>
                            <path d="M14.6809748,5.02243876 C14.6809748,4.79063389 14.5264383,4.63609732 14.2946334,4.63609732 L3.47707299,4.63609732 C3.24526812,4.63609732 3.09073154,4.79063389 3.09073154,5.02243876 L3.09073154,5.79512165 C3.09073154,6.02692651 3.24526812,6.18146309 3.47707299,6.18146309 L14.2946334,6.18146309 C14.5264383,6.18146309 14.6809748,6.02692651 14.6809748,5.79512165 L14.6809748,5.02243876 Z" id="Shape" fill="#4F739A"></path>
                            <path d="M14.6809748,8.11317031 C14.6809748,7.88136544 14.5264383,7.72682886 14.2946334,7.72682886 L3.47707299,7.72682886 C3.24526812,7.72682886 3.09073154,7.88136544 3.09073154,8.11317031 L3.09073154,8.11317031 C3.09073154,8.34497517 3.24526812,8.49951175 3.47707299,8.49951175 L14.2946334,8.49951175 C14.5264383,8.49951175 14.6809748,8.34497517 14.6809748,8.11317031 L14.6809748,8.11317031 Z" id="Shape" fill="#DDE5ED"></path>
                            <path d="M14.6809748,10.431219 C14.6809748,10.1994141 14.5264383,10.0448775 14.2946334,10.0448775 L3.47707299,10.0448775 C3.24526812,10.0448775 3.09073154,10.1994141 3.09073154,10.431219 L3.09073154,10.431219 C3.09073154,10.6630238 3.24526812,10.8175604 3.47707299,10.8175604 L14.2946334,10.8175604 C14.5264383,10.8175604 14.6809748,10.6630238 14.6809748,10.431219 L14.6809748,10.431219 Z" id="Shape" fill="#DDE5ED"></path>
                            <path d="M28.5892668,20.4760965 C28.5892668,20.7079014 28.4347302,20.8624379 28.2029253,20.8624379 L3.47707299,20.8624379 C3.24526812,20.8624379 3.09073154,20.7079014 3.09073154,20.4760965 L3.09073154,20.4760965 C3.09073154,20.2442916 3.24526812,20.089755 3.47707299,20.089755 L28.2029253,20.089755 C28.4347302,20.089755 28.5892668,20.2442916 28.5892668,20.4760965 L28.5892668,20.4760965 Z" id="Shape" fill="#DDE5ED"></path>
                            <path d="M20.4760965,22.7941451 C20.4760965,23.02595 20.3215599,23.1804866 20.089755,23.1804866 L9.27219463,23.1804866 C9.04038977,23.1804866 8.88585319,23.02595 8.88585319,22.7941451 L8.88585319,22.7941451 C8.88585319,22.5623403 9.04038977,22.4078037 9.27219463,22.4078037 L20.089755,22.4078037 C20.3215599,22.4078037 20.4760965,22.5623403 20.4760965,22.7941451 L20.4760965,22.7941451 Z" id="Shape" fill="#DDE5ED"></path>
                            <path d="M28.5892668,22.7941451 C28.5892668,23.02595 28.4347302,23.1804866 28.2029253,23.1804866 L24.3395109,23.1804866 C24.1077061,23.1804866 23.9531695,23.02595 23.9531695,22.7941451 L23.9531695,22.7941451 C23.9531695,22.5623403 24.1077061,22.4078037 24.3395109,22.4078037 L28.2029253,22.4078037 C28.4347302,22.4078037 28.5892668,22.5623403 28.5892668,22.7941451 L28.5892668,22.7941451 Z" id="Shape" fill="#DDE5ED"></path>
                            <path d="M17.3853649,25.1121938 C17.3853649,25.3439987 17.2308284,25.4985352 16.9990235,25.4985352 L9.27219463,25.4985352 C9.04038977,25.4985352 8.88585319,25.3439987 8.88585319,25.1121938 L8.88585319,25.1121938 C8.88585319,24.8803889 9.04038977,24.7258524 9.27219463,24.7258524 L16.9990235,24.7258524 C17.2308284,24.7258524 17.3853649,24.8803889 17.3853649,25.1121938 L17.3853649,25.1121938 Z" id="Shape" fill="#DDE5ED"></path>
                            <path d="M28.5892668,25.1121938 C28.5892668,25.3439987 28.4347302,25.4985352 28.2029253,25.4985352 L24.3395109,25.4985352 C24.1077061,25.4985352 23.9531695,25.3439987 23.9531695,25.1121938 L23.9531695,25.1121938 C23.9531695,24.8803889 24.1077061,24.7258524 24.3395109,24.7258524 L28.2029253,24.7258524 C28.4347302,24.7258524 28.5892668,24.8803889 28.5892668,25.1121938 L28.5892668,25.1121938 Z" id="Shape" fill="#DDE5ED"></path>
                            <path d="M18.5443893,27.8165839 L9.27219463,27.8165839 C9.04038977,27.8165839 8.88585319,27.6620473 8.88585319,27.4302425 L8.88585319,27.4302425 C8.88585319,27.1984376 9.04038977,27.043901 9.27219463,27.043901 L18.5443893,27.043901 C18.7761941,27.043901 18.9307307,27.1984376 18.9307307,27.4302425 L18.9307307,27.4302425 C18.9307307,27.6620473 18.7761941,27.8165839 18.5443893,27.8165839 Z" id="Shape" fill="#DDE5ED"></path>
                            <path d="M10.0448775,35.9297542 C10.0448775,36.1615591 9.89034094,36.3160957 9.65853608,36.3160957 L3.47707299,36.3160957 C3.24526812,36.3160957 3.09073154,36.1615591 3.09073154,35.9297542 L3.09073154,35.9297542 C3.09073154,35.6979493 3.24526812,35.5434128 3.47707299,35.5434128 L9.65853608,35.5434128 C9.89034094,35.5434128 10.0448775,35.6979493 10.0448775,35.9297542 L10.0448775,35.9297542 Z" id="Shape" fill="#DDE5ED"></path>
                            <path d="M28.5892668,35.9297542 C28.5892668,36.1615591 28.4347302,36.3160957 28.2029253,36.3160957 L22.0214623,36.3160957 C21.7896574,36.3160957 21.6351208,36.1615591 21.6351208,35.9297542 L21.6351208,35.9297542 C21.6351208,35.6979493 21.7896574,35.5434128 22.0214623,35.5434128 L28.2029253,35.5434128 C28.4347302,35.5434128 28.5892668,35.6979493 28.5892668,35.9297542 L28.5892668,35.9297542 Z" id="Shape" fill="#DDE5ED"></path>
                            <path d="M13.1356091,38.2478029 C13.1356091,38.4796077 12.9810725,38.6341443 12.7492676,38.6341443 L3.47707299,38.6341443 C3.24526812,38.6341443 3.09073154,38.4796077 3.09073154,38.2478029 L3.09073154,38.2478029 C3.09073154,38.015998 3.24526812,37.8614614 3.47707299,37.8614614 L12.7492676,37.8614614 C12.9810725,37.8614614 13.1356091,38.015998 13.1356091,38.2478029 L13.1356091,38.2478029 Z" id="Shape" fill="#DDE5ED"></path>
                            <path d="M28.5892668,27.4302425 C28.5892668,27.6620473 28.4347302,27.8165839 28.2029253,27.8165839 L24.3395109,27.8165839 C24.1077061,27.8165839 23.9531695,27.6620473 23.9531695,27.4302425 L23.9531695,27.4302425 C23.9531695,27.1984376 24.1077061,27.043901 24.3395109,27.043901 L28.2029253,27.043901 C28.4347302,27.043901 28.5892668,27.1984376 28.5892668,27.4302425 L28.5892668,27.4302425 Z" id="Shape" fill="#DDE5ED"></path>
                            <path d="M22.0214623,18.5443893 L3.47707299,18.5443893 C3.24526812,18.5443893 3.09073154,18.3898527 3.09073154,18.1580478 L3.09073154,17.3853649 C3.09073154,17.1535601 3.24526812,16.9990235 3.47707299,16.9990235 L22.0214623,16.9990235 C22.2532671,16.9990235 22.4078037,17.1535601 22.4078037,17.3853649 L22.4078037,18.1580478 C22.4078037,18.3898527 22.2532671,18.5443893 22.0214623,18.5443893 Z" id="Shape" fill="#4F739A"></path>
                            <path d="M28.2029253,18.5443893 L24.3395109,18.5443893 C24.1077061,18.5443893 23.9531695,18.3898527 23.9531695,18.1580478 L23.9531695,17.3853649 C23.9531695,17.1535601 24.1077061,16.9990235 24.3395109,16.9990235 L28.2029253,16.9990235 C28.4347302,16.9990235 28.5892668,17.1535601 28.5892668,17.3853649 L28.5892668,18.1580478 C28.5892668,18.3898527 28.4347302,18.5443893 28.2029253,18.5443893 Z" id="Shape" fill="#4F739A"></path>
                            <path d="M28.2029253,39.4068272 L22.0214623,39.4068272 C21.7896574,39.4068272 21.6351208,39.2522906 21.6351208,39.0204858 L21.6351208,38.2478029 C21.6351208,38.015998 21.7896574,37.8614614 22.0214623,37.8614614 L28.2029253,37.8614614 C28.4347302,37.8614614 28.5892668,38.015998 28.5892668,38.2478029 L28.5892668,39.0204858 C28.5892668,39.2522906 28.4347302,39.4068272 28.2029253,39.4068272 Z" id="Shape" fill="#4F739A"></path>
                            <path d="M7.72682886,22.7941451 C7.72682886,23.02595 7.57229229,23.1804866 7.34048742,23.1804866 L3.47707299,23.1804866 C3.24526812,23.1804866 3.09073154,23.02595 3.09073154,22.7941451 L3.09073154,22.7941451 C3.09073154,22.5623403 3.24526812,22.4078037 3.47707299,22.4078037 L7.34048742,22.4078037 C7.57229229,22.4078037 7.72682886,22.5623403 7.72682886,22.7941451 L7.72682886,22.7941451 Z" id="Shape" fill="#DDE5ED"></path>
                            <path d="M7.72682886,25.1121938 C7.72682886,25.3439987 7.57229229,25.4985352 7.34048742,25.4985352 L3.47707299,25.4985352 C3.24526812,25.4985352 3.09073154,25.3439987 3.09073154,25.1121938 L3.09073154,25.1121938 C3.09073154,24.8803889 3.24526812,24.7258524 3.47707299,24.7258524 L7.34048742,24.7258524 C7.57229229,24.7258524 7.72682886,24.8803889 7.72682886,25.1121938 L7.72682886,25.1121938 Z" id="Shape" fill="#DDE5ED"></path>
                            <path d="M7.72682886,27.4302425 C7.72682886,27.6620473 7.57229229,27.8165839 7.34048742,27.8165839 L3.47707299,27.8165839 C3.24526812,27.8165839 3.09073154,27.6620473 3.09073154,27.4302425 L3.09073154,27.4302425 C3.09073154,27.1984376 3.24526812,27.043901 3.47707299,27.043901 L7.34048742,27.043901 C7.57229229,27.043901 7.72682886,27.1984376 7.72682886,27.4302425 L7.72682886,27.4302425 Z" id="Shape" fill="#DDE5ED"></path>
                        </g>
                    </g>
                </g>
            </g>
        </g>
    </g>
</svg>