<?xml version="1.0" encoding="UTF-8"?>
<svg width="48px" height="47px" viewBox="0 0 48 47" version="1.1" xmlns="http://www.w3.org/2000/svg" xmlns:xlink="http://www.w3.org/1999/xlink">
    <!-- Generator: Sketch 45.2 (43514) - http://www.bohemiancoding.com/sketch -->
    <title>security</title>
    <desc>Created with Sketch.</desc>
    <defs></defs>
    <g id="Initial-Release" stroke="none" stroke-width="1" fill="none" fill-rule="evenodd">
        <g id="Home" transform="translate(-309.000000, -856.000000)" fill-rule="nonzero">
            <g id="Section-2" transform="translate(0.000000, 410.000000)">
                <g id="Group-4" transform="translate(308.000000, 447.000000)">
                    <g id="security" transform="translate(3.000000, 0.683802)">
                        <path d="M43.7240764,21.8508613 C43.7128995,9.79097416 33.9219253,0 21.8620382,0 C9.80215108,0 0,9.79097416 0,21.8508613 C0,33.9331022 9.79097416,43.7128995 21.8620382,43.7128995 C33.9331022,43.7128995 43.7240764,33.9219253 43.7240764,21.8508613 Z" id="Shape" stroke="#4F739A" stroke-width="3" fill="#F4F8FC"></path>
                        <path d="M25.90808,16.4300594 C26.791056,16.7988975 27.6069705,17.2906815 28.3446467,17.8942347 L28.3446467,13.6581854 C28.3446467,10.1374584 25.4833574,7.27616916 21.9626304,7.27616916 L21.8620382,7.27616916 C18.3413112,7.27616916 15.4800219,10.1374584 15.4800219,13.6581854 L15.4800219,17.8830578 C16.2176981,17.2795046 17.0336126,16.7988975 17.9165886,16.4188825 C18.1513037,16.3182903 18.3971957,16.228875 18.6430878,16.1394597 L18.6430878,13.6470085 C18.6430878,11.8698796 20.0849093,10.4280581 21.8620382,10.4280581 L21.9626304,10.4280581 C23.7397593,10.4280581 25.1815808,11.8698796 25.1815808,13.6470085 L25.1815808,16.1394597 C25.4274729,16.228875 25.6733649,16.3182903 25.90808,16.4300594" id="Shape" fill="#4F739A"></path>
                        <path d="M19.6154791,24.0527128 C19.6490098,22.8232526 20.6437549,21.8285075 21.8732151,21.8061536 C23.1697368,21.7726229 24.2427203,22.8232526 24.2427203,24.1197743 C24.2427203,24.2538972 24.2315434,24.3880201 24.2091895,24.5109661 C24.0974204,25.1704039 23.7062285,25.7292495 23.1585599,26.0757337 C22.9350217,26.2210335 22.8232526,26.4892794 22.8791371,26.7463484 L23.5609287,30.0100064 C23.6056363,30.2111908 23.4491596,30.3900214 23.2479752,30.3900214 L20.5990472,30.3900214 C20.3978628,30.3900214 20.252563,30.2111908 20.2860937,30.0100064 L20.9790622,26.7463484 C21.0349468,26.4892794 20.9231777,26.2210335 20.6996394,26.0757337 C20.1519708,25.7292495 19.7607789,25.1704039 19.6490098,24.5109661 C19.6154791,24.3544894 19.6043022,24.2091895 19.6154791,24.0527128 M12.9428631,25.8633724 C12.9428631,30.814744 16.9665511,34.838432 21.9179228,34.838432 C26.8692944,34.838432 30.8929824,30.8259209 30.8929824,25.8633724 C30.8929824,23.4268058 29.9205911,21.2137774 28.3446467,19.5931252 C27.4616707,18.6877954 26.3775103,17.9612962 25.1815808,17.4918659 C24.1756588,17.1006741 23.0691446,16.8771358 21.9179228,16.8771358 C20.7667009,16.8771358 19.6601867,17.0894971 18.6542647,17.4918659 C17.4471583,17.9612962 16.3741748,18.6877954 15.4911988,19.5931252 C13.9152544,21.2137774 12.9428631,23.4268058 12.9428631,25.8633724" id="Shape" fill="#4F739A"></path>
                    </g>
                </g>
            </g>
        </g>
    </g>
</svg>