<?xml version="1.0" encoding="UTF-8"?>
<svg width="68px" height="58px" viewBox="0 0 68 58" version="1.1" xmlns="http://www.w3.org/2000/svg" xmlns:xlink="http://www.w3.org/1999/xlink">
    <!-- Generator: Sketch 45.2 (43514) - http://www.bohemiancoding.com/sketch -->
    <title>sms-emails-mobile</title>
    <desc>Created with Sketch.</desc>
    <defs></defs>
    <g id="Initial-Release" stroke="none" stroke-width="1" fill="none" fill-rule="evenodd">
        <g id="Home" transform="translate(-730.000000, -601.000000)">
            <g id="sms-emails-mobile" transform="translate(730.000000, 601.000000)">
                <path d="M13.171123,48.5905247 L15.0128936,48.5400652 L16.6780561,48.4959132 L28.8829405,48.1805415 C29.1485607,48.1773059 29.4114021,48.1260197 29.6587549,48.0291631 C30.0717898,47.8570022 30.3922287,47.517463 30.5402143,47.0951627 C30.6881998,46.6728624 30.6497945,46.2075743 30.4345692,45.8152539 L28.1512782,40.233175 C29.1543489,39.3587222 29.4802866,37.9378379 28.9586297,36.7136269 C28.4522935,35.4931035 27.2387549,34.7176473 25.9184466,34.7709373 L23.786534,29.560997 C23.6593709,29.1235712 23.3526847,28.7605836 22.942631,28.5621705 C22.5325773,28.3637574 22.0576199,28.3485303 21.6356991,28.5202704 C21.4031462,28.6218583 21.1897906,28.762673 21.0049557,28.9365611 L6.86999661,41.6838847 C6.63031413,41.9109523 2.03850233,42.6426147 2.03850233,42.6426147 C1.85926059,42.6436235 1.68175788,42.6778409 1.51498533,42.7435336 C1.24158802,42.8586976 1.02987774,43.084434 0.932464533,43.3646473 C0.835051324,43.6448606 0.861080277,43.9532445 1.00408319,44.2131657 L3.47659724,50.2367649 C3.55597325,50.5229258 3.75313119,50.7619197 4.01898551,50.8942454 C4.28483983,51.0265711 4.59437961,51.0397797 4.8705401,50.9305827 C5.03409807,50.8614576 5.18370944,50.7631415 5.31206047,50.6404407 L7.166446,48.899589 L8.42793275,54.614124 C8.74330444,55.3836309 8.56038886,56.0522189 9.05867613,56.1531378 L12.8431364,57.0803306 C13.0360088,57.1601817 13.2548455,57.1471917 13.4369169,57.0450841 C13.6189883,56.9429765 13.7441913,56.7630253 13.7766366,56.5568136 L13.171123,48.5905247 Z" id="Shape" stroke="#4F739A" stroke-width="1.5" fill="#F4F8FC" fill-rule="nonzero"></path>
                <path d="M29.5389136,47.7768658 L22.0582972,28.7284157" id="Shape" stroke="#4F739A" stroke-width="2.73" fill="#FFFFFF" fill-rule="nonzero"></path>
                <path d="M29.7029069,31.509994 L37.9214931,18.0625452" id="Shape" stroke="#DDE5ED" stroke-width="1.5"></path>
                <path d="M31.9420459,35.2439948 L47.6286337,27.7759932" id="Shape" stroke="#DDE5ED" stroke-width="1.5"></path>
                <path d="M33.0647691,40 L47.2564951,40" id="Shape" stroke="#DDE5ED" stroke-width="1.5"></path>
                <path d="M63.114312,10.0467015 C60.4384524,10.0467015 58.2614119,7.86966097 58.2614119,5.19380132 C58.2614119,2.51794167 60.4384524,0.340946014 63.114312,0.340946014 C65.7901717,0.340946014 67.9672122,2.51794167 67.9672122,5.19380132 C67.9672122,7.86966097 65.7901717,10.0467015 63.114312,10.0467015 Z M63.114312,1.61800376 C61.1425858,1.61800376 59.5385145,3.22207512 59.5385145,5.19380132 C59.5385145,7.16552751 61.1425858,8.76959888 63.114312,8.76959888 C65.0860382,8.76959888 66.6901096,7.16552751 66.6901096,5.19380132 C66.6901096,3.22207512 65.0860831,1.61800376 63.114312,1.61800376 Z" id="Shape" fill="#4F739A" fill-rule="nonzero"></path>
                <path d="M62.1251519,17.4975432 L46.6987214,17.4975432 C45.7620449,17.4975432 45,16.7355432 45,15.7989115 L45,4.76527441 C45,3.82859793 45.7620449,3.06655301 46.6987214,3.06655301 L59.1713531,3.06655301 C59.5239357,3.06655301 59.8099044,3.35247685 59.8099044,3.70510431 C59.8099044,4.05773176 59.5239805,4.3436556 59.1713531,4.3436556 L46.6987214,4.3436556 C46.4662232,4.3436556 46.2771026,4.53277624 46.2771026,4.76527441 L46.2771026,15.7989115 C46.2771026,16.03132 46.4662232,16.2204855 46.6987214,16.2204855 L62.1252416,16.2204855 C62.35765,16.2204855 62.5468155,16.0313649 62.5468155,15.7989115 L62.5468155,12.1367178 C62.5468155,11.7841352 62.8327394,11.4981665 63.1853668,11.4981665 C63.5379494,11.4981665 63.8239181,11.7840903 63.8239181,12.1367178 L63.8239181,15.7989115 C63.8237836,16.7355432 63.0617835,17.4975432 62.1251519,17.4975432 Z" id="Shape" fill="#4F739A" fill-rule="nonzero"></path>
                <path d="M58.8999632,5.19380132 C58.8999632,4.73320106 58.9748757,4.29031964 59.1114679,3.87547437 L46.822529,3.87547437 C45.9353307,3.87547437 45.5549812,5.00180978 46.2604155,5.53970009 L53.8498231,11.3264507 C54.1818159,11.5795835 54.6420125,11.5795835 54.9740502,11.3264507 L59.7277248,7.7018478 C59.2077328,7.00098897 58.8999632,6.13343842 58.8999632,5.19380132 Z" id="Shape" fill="#DDE5ED" fill-rule="nonzero"></path>
                <path d="M54.4118469,12.1548404 C54.0708825,12.1548404 53.733731,12.0409912 53.4626102,11.8342414 L45.8732475,6.04740109 C45.3304228,5.63354269 45.1208022,4.94820466 45.3392598,4.30144438 C45.5577175,3.65472895 46.1399273,3.23678849 46.822529,3.23678849 L59.1114679,3.23678849 C59.3162887,3.23678849 59.508684,3.33507201 59.6288133,3.50100115 C59.7488529,3.66697514 59.7820477,3.88036387 59.7180355,4.07491231 C59.598938,4.43682533 59.5384696,4.81327229 59.5384696,5.1937116 C59.5384696,5.96661212 59.7812402,6.70228064 60.2404947,7.32131878 C60.44868,7.6019494 60.3926525,7.99773009 60.1148479,8.20954879 L55.3611733,11.8341517 C55.0900525,12.0409463 54.7528562,12.1548404 54.4118469,12.1548404 Z M46.822529,4.51398081 C46.6423351,4.51398081 46.573882,4.63689128 46.5491654,4.71014413 C46.5244487,4.78339697 46.5043524,4.9226357 46.6476283,5.03190939 L54.2369911,10.81866 C54.3010481,10.867555 54.3674377,10.8777826 54.4118918,10.8777826 C54.4563459,10.8777826 54.5227355,10.867555 54.5867925,10.81866 L58.8716579,7.55157405 C58.4708531,6.83393839 58.2614119,6.0297271 58.2614119,5.19375646 C58.2614119,4.96565436 58.2773813,4.73867371 58.3091855,4.51398081 L46.822529,4.51398081 L46.822529,4.51398081 Z" id="Shape" fill="#4F739A" fill-rule="nonzero"></path>
                <path d="M62.6837665,4.07594404 L62.4985934,4.19086981 C62.4411753,4.22917841 62.3836676,4.24196289 62.3389443,4.24196289 C62.1537712,4.24196289 62.0260609,4.04400526 62.0260609,3.84604763 C62.0260609,3.71196755 62.0835238,3.58416758 62.2112341,3.50764011 L63.0541577,2.99675421 C63.1052507,2.96481543 63.1690834,2.95207581 63.239286,2.95207581 C63.4436134,2.95207581 63.6798796,3.07341625 63.6798796,3.26495922 L63.6798796,7.326298 C63.6798796,7.53071516 63.4309186,7.63285645 63.1818231,7.63285645 C62.9327275,7.63285645 62.6837217,7.5306703 62.6837217,7.326298 L62.6837217,4.07594404 L62.6837665,4.07594404 Z" id="Shape" fill="#4F739A" fill-rule="nonzero"></path>
            </g>
        </g>
    </g>
</svg>