<?xml version="1.0" encoding="UTF-8"?>
<svg width="78px" height="41px" viewBox="0 0 78 41" version="1.1" xmlns="http://www.w3.org/2000/svg" xmlns:xlink="http://www.w3.org/1999/xlink">
    <!-- Generator: Sketch 45.2 (43514) - http://www.bohemiancoding.com/sketch -->
    <title>call-monitoring</title>
    <desc>Created with Sketch.</desc>
    <defs></defs>
    <g id="Initial-Release" stroke="none" stroke-width="1" fill="none" fill-rule="evenodd">
        <g id="Home" transform="translate(-523.000000, -609.000000)">
            <g id="Section-2" transform="translate(0.000000, 410.000000)">
                <g id="Group-5" transform="translate(518.000000, 199.000000)">
                    <g id="call-monitoring" transform="translate(6.000000, 0.781170)">
                        <path d="M38.1746053,12.4000644 C41.9881908,12.4000644 45.2158744,14.1384297 47.2521551,15.596979 C49.6646438,17.3249502 50.906156,18.9963996 51.2280659,19.6339106 C50.905794,20.2713698 49.6646955,21.9428192 47.2521551,23.6708421 C45.2158744,25.1293397 41.9881908,26.867705 38.1746053,26.867705 C34.3610198,26.867705 31.1333879,25.1293397 29.0970555,23.6708421 C26.6841014,21.9428192 25.4430546,20.2713698 25.1206793,19.6339106 C25.4430546,18.9963996 26.6841014,17.3249502 29.0965901,15.596979 C31.1333879,14.1384297 34.3610198,12.4000644 38.1746053,12.4000644 L38.1746053,12.4000644 Z M38.1746053,10.591577 C29.9348488,10.591577 23.2548428,17.8254232 23.2548428,19.6339106 C23.2548428,21.442398 29.9348488,28.6761925 38.1746053,28.6761925 C46.4144136,28.6761925 53.0944195,21.4423463 53.0944195,19.6339106 C53.0944195,17.8254749 46.4144653,10.591577 38.1746053,10.591577 L38.1746053,10.591577 Z M38.1746053,14.2085518 C35.1784383,14.2085518 32.7492465,16.6377436 32.7492465,19.6339106 C32.7492465,22.6300258 35.1784383,25.0592694 38.1746053,25.0592694 C41.1707723,25.0592694 43.5999641,22.6300258 43.5999641,19.6339106 C43.5999641,16.6377436 41.1707723,14.2085518 38.1746053,14.2085518 Z M36.7138323,19.6339106 C35.4461019,19.6339106 34.4184206,18.6062293 34.4184206,17.3384988 C34.4184206,16.0707684 35.4461019,15.0431388 36.7138323,15.0431388 C37.9815628,15.0431388 39.0092441,16.0708201 39.0092441,17.3384988 C39.0092441,18.6062293 37.9815628,19.6339106 36.7138323,19.6339106 Z" id="Shape" fill="#4F739A" fill-rule="nonzero"></path>
                        <path d="M55.960655,11.2745236 C59.2372856,14.1819079 60.8756009,17.0892923 60.8756009,19.9966766 C60.8756009,22.9040609 59.2372856,25.8114453 55.960655,28.7188296" id="Line-2" stroke="#DDE5ED" stroke-width="2" stroke-linecap="square"></path>
                        <path d="M65.960655,0.808821087 C72.3323296,6.96048917 75.5181669,13.1121573 75.5181669,19.2638253 C75.5181669,25.4154934 72.3323296,31.5671615 65.960655,37.7188296" id="Line-2" stroke="#DDE5ED" stroke-width="2" stroke-linecap="square"></path>
                        <path d="M15.1243991,10.2811704 C18.4010297,13.1885547 20.039345,16.0959391 20.039345,19.0033234 C20.039345,21.9107077 18.4010297,24.8180921 15.1243991,27.7254764" id="Line-2" stroke="#DDE5ED" stroke-width="2" stroke-linecap="square" transform="translate(17.581872, 19.003323) rotate(-180.000000) translate(-17.581872, -19.003323) "></path>
                        <path d="M0.48183313,1.2811704 C6.85350774,7.43283848 10.039345,13.5845066 10.039345,19.7361747 C10.039345,25.8878427 6.85350774,32.0395108 0.48183313,38.1911789" id="Line-2" stroke="#DDE5ED" stroke-width="2" stroke-linecap="square" transform="translate(5.260589, 19.736175) rotate(-180.000000) translate(-5.260589, -19.736175) "></path>
                    </g>
                </g>
            </g>
        </g>
    </g>
</svg>