<?xml version="1.0" encoding="UTF-8"?>
<svg width="60px" height="28px" viewBox="0 0 60 28" version="1.1" xmlns="http://www.w3.org/2000/svg" xmlns:xlink="http://www.w3.org/1999/xlink">
    <!-- Generator: Sketch 45.2 (43514) - http://www.bohemiancoding.com/sketch -->
    <title>∞</title>
    <desc>Created with Sketch.</desc>
    <defs></defs>
    <g id="Initial-Release" stroke="none" stroke-width="1" fill="none" fill-rule="evenodd">
        <g id="Home" transform="translate(-728.000000, -863.000000)" fill="#4F739A">
            <g id="Section-2" transform="translate(0.000000, 410.000000)">
                <g id="Group-6" transform="translate(728.000000, 453.000000)">
                    <path d="M59.6615361,13.4518897 C59.6615361,15.529665 59.2905104,17.4144758 58.5484478,19.1063785 C57.8063852,20.7982813 56.8268772,22.2378612 55.6098945,23.4251614 C54.3929118,24.6124616 52.983014,25.5326054 51.3801587,26.1856205 C49.7773035,26.8386356 48.1151081,27.1651383 46.3935229,27.1651383 C44.9687626,27.1651383 43.6033879,26.9276818 42.2973577,26.4527617 C40.9913275,25.9778416 39.6853169,25.2803132 38.3792867,24.3601556 C37.0732565,23.439998 35.7375638,22.3120797 34.3721686,20.976367 C33.0067734,19.6406543 31.5226704,18.1120282 29.9198151,16.3904429 C28.7325149,17.7558382 27.5303915,19.0766898 26.3134088,20.3530375 C25.0964262,21.6293852 23.8052566,22.7721445 22.4398613,23.7813497 C21.0744661,24.7905548 19.6200452,25.6068114 18.076555,26.230144 C16.5330647,26.8534766 14.8411873,27.1651383 13.0008721,27.1651383 C11.2199218,27.1651383 9.54288541,26.8237946 7.96971266,26.141097 C6.39653991,25.4583994 5.01632415,24.5085735 3.82902396,23.2915908 C2.64172377,22.0746081 1.7067389,20.6647103 1.02404129,19.061855 C0.341343684,17.4589997 0,15.7077582 0,13.8080779 C0,11.8490326 0.341343684,10.038427 1.02404129,8.37620674 C1.7067389,6.71398648 2.64172377,5.25956556 3.82902396,4.01290037 C5.01632415,2.76623517 6.45590403,1.80156824 8.1478068,1.11887063 C9.83970957,0.436173022 11.6651562,0.094829338 13.6242015,0.094829338 C15.2864218,0.094829338 16.8595709,0.406490962 18.3436962,1.02982356 C19.8278214,1.65315616 21.2525603,2.46941279 22.6179555,3.47861795 C23.9833507,4.48782311 25.3042023,5.64542343 26.5805501,6.95145364 C27.8568978,8.25748385 29.0887032,9.59317652 30.2760034,10.9585717 C31.5226686,9.59317652 32.739633,8.25748385 33.9269332,6.95145364 C35.1142334,5.64542343 36.3757209,4.48782311 37.7114337,3.47861795 C39.0471464,2.46941279 40.4718852,1.65315616 41.985693,1.02982356 C43.4995007,0.406490962 45.1765371,0.094829338 47.0168524,0.094829338 C50.934943,0.094829338 54.0218772,1.32663481 56.2777475,3.7902827 C58.5336179,6.25393058 59.6615361,9.44475198 59.6615361,13.3628426 L59.6615361,13.4518897 Z M13.6242015,23.6923026 C15.1083268,23.6923026 16.5033836,23.3657999 17.8094138,22.7127848 C19.115444,22.0597697 20.3620905,21.2435131 21.5493907,20.2639904 C22.7366908,19.2844678 23.8646091,18.2159136 24.9331793,17.058296 C26.0017494,15.9006783 27.0109395,14.8469652 27.9607796,13.897125 C26.9515745,12.7098248 25.8978613,11.4928604 24.7996087,10.2461952 C23.701356,8.99952999 22.5585967,7.87161173 21.3712965,6.86240657 C20.1839963,5.85320141 18.8928267,5.03694478 17.497749,4.41361218 C16.1026713,3.79027958 14.5740452,3.47861795 12.911825,3.47861795 C11.4870648,3.47861795 10.1958952,3.76059752 9.03827749,4.32456511 C7.8806598,4.8885327 6.91599287,5.66026624 6.14424775,6.6397889 C5.37250263,7.61931155 4.79370247,8.73238878 4.40782991,9.97905398 C4.02195735,11.2257192 3.82902396,12.5317298 3.82902396,13.897125 C3.82902396,15.2625202 4.05163941,16.5388488 4.49687698,17.726149 C4.94211455,18.9134492 5.59511986,19.9523212 6.45591249,20.8427964 C7.31670513,21.7332715 8.34073618,22.4307999 9.52803637,22.9354025 C10.7153366,23.4400051 12.0510292,23.6923026 13.5351545,23.6923026 L13.6242015,23.6923026 Z M46.571617,3.47861795 C45.0281268,3.47861795 43.5588648,3.8496437 42.1637871,4.59170631 C40.7687094,5.33376893 39.4626988,6.23907175 38.2457161,7.30764191 C37.0287334,8.37621208 35.9008151,9.48928931 34.8619275,10.646907 C33.8230398,11.8045247 32.917737,12.7691916 32.1459919,13.5409367 C35.1736073,16.8060123 37.7559465,19.3141463 39.8930868,21.0654141 C42.0302272,22.8166818 44.3157458,23.6923026 46.7497111,23.6923026 C48.1744714,23.6923026 49.465641,23.395482 50.6232586,22.8018319 C51.7808763,22.2081818 52.7455433,21.4512893 53.5172884,20.5311316 C54.2890335,19.610974 54.8826747,18.5572609 55.2982298,17.3699607 C55.7137848,16.1826605 55.9215592,14.9656961 55.9215592,13.7190309 C55.9215592,10.3945903 55.0459385,7.85677426 53.2946707,6.10550649 C51.5434029,4.35423871 49.3320895,3.47861795 46.6606641,3.47861795 L46.571617,3.47861795 Z" id="∞"></path>
                </g>
            </g>
        </g>
    </g>
</svg>